<svg width="512" height="512" viewBox="0 0 512 512" fill="none" xmlns="http://www.w3.org/2000/svg">
  <rect width="512" height="512" rx="100" fill="#061424"/>
  <circle cx="256" cy="256" r="210" fill="#0B2540" stroke="#0EA5E9" stroke-width="10"/>
  <circle cx="185" cy="185" r="42" fill="#FDBA3B"/>
  <g stroke="#38BDF8" stroke-width="16" stroke-linecap="round">
    <path d="M120 320C160 280 220 280 260 320"/>
    <path d="M100 355C150 310 230 310 280 355"/>
  </g>
  <path d="M285 180C322 180 352 208 352 242C352 247 352 251 351 255H226C223 246 222 239 222 232C222 203 246 180 275 180H285Z" fill="#1E3A5F"/>
  <g fill="#38BDF8">
    <path d="M245 275C253 286 252 299 242 309C239 297 236 285 245 275Z"/>
    <path d="M281 275C289 286 288 299 278 309C275 297 272 285 281 275Z"/>
    <path d="M317 275C325 286 324 299 314 309C311 297 308 285 317 275Z"/>
  </g>
  <circle cx="338" cy="330" r="55" stroke="#38BDF8" stroke-width="14"/>
  <path d="M338 285V375M293 330H383" stroke="#38BDF8" stroke-width="14" stroke-linecap="round"/>
  <text x="256" y="455" font-family="Arial, Helvetica, sans-serif" font-size="42" fill="white" text-anchor="middle">Meteo Agrias</text>
</svg>
